<?xml version="1.0"?>
<svg viewBox="0 0 1280 640" xmlns="http://www.w3.org/2000/svg" font-family="-apple-system, BlinkMacSystemFont, &#39;Inter&#39;, &#39;Segoe UI&#39;, Helvetica, Arial, sans-serif">
  <defs>
    
    <symbol id="ornn-logomark" viewBox="0 0 230 64">
      <path fill="#FF7322" fill-rule="evenodd" d="M63.39,38.24 L59.46,37.46 A28,28 0 0,1 55.28,47.56 L58.61,49.78 A32,32 0 0,1 49.78,58.61 L47.56,55.28 A28,28 0 0,1 37.46,59.46 L38.24,63.39 A32,32 0 0,1 25.76,63.39 L26.54,59.46 A28,28 0 0,1 16.44,55.28 L14.22,58.61 A32,32 0 0,1 5.39,49.78 L8.72,47.56 A28,28 0 0,1 4.54,37.46 L0.61,38.24 A32,32 0 0,1 0.61,25.76 L4.54,26.54 A28,28 0 0,1 8.72,16.44 L5.39,14.22 A32,32 0 0,1 14.22,5.39 L16.44,8.72 A28,28 0 0,1 26.54,4.54 L25.76,0.61 A32,32 0 0,1 38.24,0.61 L37.46,4.54 A28,28 0 0,1 47.56,8.72 L49.78,5.39 A32,32 0 0,1 58.61,14.22 L55.28,16.44 A28,28 0 0,1 59.46,26.54 L63.39,25.76 A32,32 0 0,1 63.39,38.24 Z M46,32 A14,14 0 1,0 18,32 A14,14 0 1,0 46,32 Z"></path>
      <g fill="currentColor">
        <path d="M74,60 L74,12 L86,12 A24,24 0 0,1 110,36 L98,36 A12,12 0 0,0 86,24 L86,60 Z"></path>
        <path d="M122,60 L122,36 A24,24 0 0,1 170,36 L170,60 L158,60 L158,36 A12,12 0 0,0 134,36 L134,60 Z"></path>
        <path d="M182,60 L182,36 A24,24 0 0,1 230,36 L230,60 L218,60 L218,36 A12,12 0 0,0 194,36 L194,60 Z"></path>
      </g>
    </symbol>

    <symbol id="ornn-gear" viewBox="0 0 64 64">
      <path fill="#FF7322" fill-rule="evenodd" d="M63.39,38.24 L59.46,37.46 A28,28 0 0,1 55.28,47.56 L58.61,49.78 A32,32 0 0,1 49.78,58.61 L47.56,55.28 A28,28 0 0,1 37.46,59.46 L38.24,63.39 A32,32 0 0,1 25.76,63.39 L26.54,59.46 A28,28 0 0,1 16.44,55.28 L14.22,58.61 A32,32 0 0,1 5.39,49.78 L8.72,47.56 A28,28 0 0,1 4.54,37.46 L0.61,38.24 A32,32 0 0,1 0.61,25.76 L4.54,26.54 A28,28 0 0,1 8.72,16.44 L5.39,14.22 A32,32 0 0,1 14.22,5.39 L16.44,8.72 A28,28 0 0,1 26.54,4.54 L25.76,0.61 A32,32 0 0,1 38.24,0.61 L37.46,4.54 A28,28 0 0,1 47.56,8.72 L49.78,5.39 A32,32 0 0,1 58.61,14.22 L55.28,16.44 A28,28 0 0,1 59.46,26.54 L63.39,25.76 A32,32 0 0,1 63.39,38.24 Z M46,32 A14,14 0 1,0 18,32 A14,14 0 1,0 46,32 Z"></path>
    </symbol>

    
    <pattern id="blueprint-grid" width="32" height="32" patternUnits="userSpaceOnUse">
      <path d="M 32 0 L 0 0 0 32" fill="none" stroke="rgba(20,19,14,0.045)" stroke-width="0.6"></path>
    </pattern>

    
    <marker id="flow-arrow" viewBox="-1 -4 10 8" refX="7" refY="0" markerWidth="8" markerHeight="8" orient="auto" markerUnits="strokeWidth">
      <path d="M0,-3 L7,0 L0,3" fill="none" stroke="#2B7791" stroke-width="1.4" stroke-linecap="round" stroke-linejoin="round"></path>
    </marker>
  </defs>

  
  <rect width="1280" height="640" fill="#EAECEC"></rect>
  <rect width="1280" height="640" fill="url(#blueprint-grid)"></rect>

  
  <g>
    <line x1="14" y1="32" x2="14" y2="608" stroke="rgba(20,19,14,0.22)" stroke-width="0.8"></line>
    <line x1="1266" y1="32" x2="1266" y2="608" stroke="rgba(20,19,14,0.22)" stroke-width="0.8"></line>
    <g stroke="rgba(20,19,14,0.40)" stroke-width="0.8">
      <line x1="6" y1="96" x2="14" y2="96"></line>
      <line x1="6" y1="160" x2="14" y2="160"></line>
      <line x1="6" y1="224" x2="14" y2="224"></line>
      <line x1="6" y1="288" x2="14" y2="288"></line>
      <line x1="6" y1="352" x2="14" y2="352"></line>
      <line x1="6" y1="416" x2="14" y2="416"></line>
      <line x1="6" y1="480" x2="14" y2="480"></line>
      <line x1="6" y1="544" x2="14" y2="544"></line>
      <line x1="1266" y1="96" x2="1274" y2="96"></line>
      <line x1="1266" y1="160" x2="1274" y2="160"></line>
      <line x1="1266" y1="224" x2="1274" y2="224"></line>
      <line x1="1266" y1="288" x2="1274" y2="288"></line>
      <line x1="1266" y1="352" x2="1274" y2="352"></line>
      <line x1="1266" y1="416" x2="1274" y2="416"></line>
      <line x1="1266" y1="480" x2="1274" y2="480"></line>
      <line x1="1266" y1="544" x2="1274" y2="544"></line>
    </g>
  </g>

  
  <g stroke="rgba(20,19,14,0.40)" stroke-width="1" fill="none">
    <g transform="translate(48, 48)"><line x1="-8" y1="0" x2="8" y2="0"></line><line x1="0" y1="-8" x2="0" y2="8"></line><circle r="3.5"></circle></g>
    <g transform="translate(1232, 48)"><line x1="-8" y1="0" x2="8" y2="0"></line><line x1="0" y1="-8" x2="0" y2="8"></line><circle r="3.5"></circle></g>
    <g transform="translate(48, 592)"><line x1="-8" y1="0" x2="8" y2="0"></line><line x1="0" y1="-8" x2="0" y2="8"></line><circle r="3.5"></circle></g>
    <g transform="translate(1232, 592)"><line x1="-8" y1="0" x2="8" y2="0"></line><line x1="0" y1="-8" x2="0" y2="8"></line><circle r="3.5"></circle></g>
  </g>

  
  <g transform="translate(64, 60)" color="#14130E">
    <use href="#ornn-logomark" width="115" height="32"></use>
  </g>
  <text x="1216" y="84" text-anchor="end" font-family="ui-monospace, &#39;JetBrains Mono&#39;, &#39;SF Mono&#39;, Menlo, Consolas, monospace" font-size="11" font-weight="500" fill="#7E776B" letter-spacing="2.4">[ § 01 — ARCHITECTURE ]</text>

  
  <g transform="translate(64, 112)">
    <rect x="0" y="-2" width="56" height="4" fill="#D9461A"></rect>
    <line x1="56" y1="0" x2="1124" y2="0" stroke="rgba(20,19,14,0.18)" stroke-width="1"></line>
    <rect x="323" y="-1.5" width="3" height="3" fill="rgba(20,19,14,0.40)"></rect>
    <rect x="853" y="-1.5" width="3" height="3" fill="rgba(20,19,14,0.40)"></rect>
    <rect x="1124" y="-2" width="28" height="4" fill="#2B7791"></rect>
  </g>

  
  <g text-anchor="middle">
    <text x="640" y="156" font-family="ui-monospace, &#39;JetBrains Mono&#39;, &#39;SF Mono&#39;, Menlo, Consolas, monospace" font-size="11" font-weight="500" fill="#D9461A" letter-spacing="3">[ § ONE API  ·  AGENT-FACING  ·  MODEL-AGNOSTIC ]</text>
    <text x="640" y="208" font-family="&#39;Space Grotesk&#39;, &#39;Helvetica Neue&#39;, Helvetica, Arial, sans-serif" font-size="38" font-weight="700" fill="#14130E" letter-spacing="-0.95">THE SKILL LIFE-CYCLE API</text>

    
    <rect x="610" y="227" width="218" height="34" rx="3" ry="4" fill="#D9461A" opacity="0.30" transform="rotate(-0.5 719 244)"></rect>
    <text x="640" y="254" font-family="&#39;Space Grotesk&#39;, &#39;Helvetica Neue&#39;, Helvetica, Arial, sans-serif" font-size="38" font-weight="700" fill="#14130E" letter-spacing="-0.95">BUILT FOR AI AGENTS, NOT HUMANS</text>
  </g>

  
  <g transform="translate(64, 290)">
    
    <rect x="4" y="4" width="240" height="272" rx="4" fill="#6E2207" opacity="0.13"></rect>
    
    <rect width="240" height="272" rx="4" fill="#FFFFFF"></rect>
    <rect width="240" height="272" rx="4" fill="none" stroke="rgba(20,19,14,0.18)" stroke-width="1"></rect>
    
    <text x="20" y="32" font-family="ui-monospace, &#39;JetBrains Mono&#39;, &#39;SF Mono&#39;, Menlo, Consolas, monospace" font-size="10.5" font-weight="600" fill="#7E776B" letter-spacing="2">[ § 01 — AGENT ]</text>
    
    <g transform="translate(20, 56)" font-family="ui-monospace, &#39;JetBrains Mono&#39;, &#39;SF Mono&#39;, Menlo, Consolas, monospace" font-size="11.5" fill="#14130E">
      <g>
        <rect width="200" height="34" rx="3" fill="#EDEFEF"></rect>
        <rect width="200" height="34" rx="3" fill="none" stroke="rgba(20,19,14,0.08)" stroke-width="1"></rect>
        <rect x="0" y="0" width="3" height="34" fill="#14130E"></rect>
        <text x="16" y="22">claude</text>
      </g>
      <g transform="translate(0, 42)">
        <rect width="200" height="34" rx="3" fill="#EDEFEF"></rect>
        <rect width="200" height="34" rx="3" fill="none" stroke="rgba(20,19,14,0.08)" stroke-width="1"></rect>
        <rect x="0" y="0" width="3" height="34" fill="#14130E"></rect>
        <text x="16" y="22">gpt-5</text>
      </g>
      <g transform="translate(0, 84)">
        <rect width="200" height="34" rx="3" fill="#EDEFEF"></rect>
        <rect width="200" height="34" rx="3" fill="none" stroke="rgba(20,19,14,0.08)" stroke-width="1"></rect>
        <rect x="0" y="0" width="3" height="34" fill="#14130E"></rect>
        <text x="16" y="22">gemini</text>
      </g>
      <g transform="translate(0, 126)">
        <rect width="200" height="34" rx="3" fill="none" stroke="rgba(20,19,14,0.40)" stroke-dasharray="3 3"></rect>
        <text x="100" y="22" text-anchor="middle" fill="#7E776B">+ your runtime</text>
      </g>
    </g>
    <text x="20" y="250" font-family="ui-monospace, &#39;JetBrains Mono&#39;, &#39;SF Mono&#39;, Menlo, Consolas, monospace" font-size="10" fill="#7E776B" letter-spacing="1.4"><tspan fill="#14130E" font-weight="600">ANY AGENT</tspan>  ·  ANY MODEL</text>
  </g>

  
  <g transform="translate(304, 420)">
    <text x="64" y="-14" text-anchor="middle" font-family="ui-monospace, &#39;JetBrains Mono&#39;, &#39;SF Mono&#39;, Menlo, Consolas, monospace" font-size="10.5" font-weight="600" letter-spacing="1.8" fill="#14130E">[ HTTP / MCP ]</text>
    <line x1="16" y1="0" x2="116" y2="0" stroke="#14130E" stroke-width="1.6"></line>
    <polygon points="116,0 108,-5 108,5" fill="#14130E"></polygon>
    <circle cx="60" cy="14" r="1.5" fill="rgba(20,19,14,0.40)"></circle>
    <circle cx="80" cy="14" r="1.5" fill="rgba(20,19,14,0.40)"></circle>
  </g>

  
  <g transform="translate(432, 290)">
    <rect x="4" y="4" width="416" height="272" rx="4" fill="#6E2207" opacity="0.13"></rect>
    <rect width="416" height="272" rx="4" fill="#FFFFFF"></rect>
    <rect width="416" height="272" rx="4" fill="none" stroke="rgba(20,19,14,0.18)" stroke-width="1"></rect>
    <text x="20" y="32" font-family="ui-monospace, &#39;JetBrains Mono&#39;, &#39;SF Mono&#39;, Menlo, Consolas, monospace" font-size="10.5" font-weight="600" fill="#7E776B" letter-spacing="2">[ § 02 — ORNN  ·  LIFE-CYCLE API ]</text>

    
    <g transform="translate(208, 144)">
      
      <circle r="58" fill="none" stroke="rgba(20,19,14,0.08)" stroke-width="1" stroke-dasharray="1 5"></circle>

      
      <g fill="none" stroke="#2B7791" stroke-width="1.6" stroke-linecap="round" stroke-opacity="0.85" marker-end="url(#flow-arrow)">
        <path d="M 15.0 -56.0 A 58 58 0 0 1 29.0 -50.2"></path>
        <path d="M 50.2 -29.0 A 58 58 0 0 1 56.0 -15.0"></path>
        <path d="M 56.0 15.0 A 58 58 0 0 1 50.2 29.0"></path>
        <path d="M 29.0 50.2 A 58 58 0 0 1 15.0 56.0"></path>
        <path d="M -15.0 56.0 A 58 58 0 0 1 -29.0 50.2"></path>
        <path d="M -50.2 29.0 A 58 58 0 0 1 -56.0 15.0"></path>
        <path d="M -56.0 -15.0 A 58 58 0 0 1 -50.2 -29.0"></path>
        <path d="M -29.0 -50.2 A 58 58 0 0 1 -15.0 -56.0"></path>
      </g>

      
      <g>
        <circle cx="0" cy="-58" r="7" fill="#14130E"></circle>
        <circle cx="41" cy="-41" r="7" fill="#14130E"></circle>
        <circle cx="58" cy="0" r="7" fill="#14130E"></circle>
        <circle cx="41" cy="41" r="7" fill="#14130E"></circle>
        <circle cx="0" cy="58" r="7" fill="#14130E"></circle>
        <circle cx="-41" cy="41" r="7" fill="#14130E"></circle>
        <circle cx="-58" cy="0" r="7" fill="#14130E"></circle>
        <circle cx="-41" cy="-41" r="7" fill="#14130E"></circle>
      </g>

      
      <g font-family="ui-monospace, &#39;JetBrains Mono&#39;, &#39;SF Mono&#39;, Menlo, Consolas, monospace" font-size="13" font-weight="600" fill="#14130E" letter-spacing="1.4">
        <text x="0" y="-78" text-anchor="middle"><tspan fill="#D9461A" font-weight="500" font-size="10">01 </tspan>SEARCH</text>
        <text x="60" y="-58" text-anchor="start"><tspan fill="#D9461A" font-weight="500" font-size="10">02 </tspan>PREVIEW</text>
        <text x="76" y="4" text-anchor="start"><tspan fill="#D9461A" font-weight="500" font-size="10">03 </tspan>AUDIT</text>
        <text x="60" y="66" text-anchor="start"><tspan fill="#D9461A" font-weight="500" font-size="10">04 </tspan>INSTALL</text>
        <text x="0" y="86" text-anchor="middle"><tspan fill="#D9461A" font-weight="500" font-size="10">05 </tspan>EXECUTE</text>
        <text x="-60" y="66" text-anchor="end"><tspan fill="#D9461A" font-weight="500" font-size="10">06 </tspan>GENERATE</text>
        <text x="-76" y="4" text-anchor="end"><tspan fill="#D9461A" font-weight="500" font-size="10">07 </tspan>PUBLISH</text>
        <text x="-60" y="-58" text-anchor="end"><tspan fill="#D9461A" font-weight="500" font-size="10">08 </tspan>SHARE</text>
      </g>

      
      <use href="#ornn-gear" x="-20" y="-20" width="40" height="40"></use>
    </g>

    <text x="208" y="260" text-anchor="middle" font-family="ui-monospace, &#39;JetBrains Mono&#39;, &#39;SF Mono&#39;, Menlo, Consolas, monospace" font-size="10" fill="#7E776B" letter-spacing="1.6"><tspan fill="#14130E" font-weight="600">8 ATOMIC OPS</tspan>  ·  ONE SURFACE  ·  AUDITED BY DEFAULT</text>
  </g>

  
  <g transform="translate(848, 420)">
    <text x="64" y="-14" text-anchor="middle" font-family="ui-monospace, &#39;JetBrains Mono&#39;, &#39;SF Mono&#39;, Menlo, Consolas, monospace" font-size="10.5" font-weight="600" letter-spacing="1.8" fill="#14130E">[ MANAGES ]</text>
    <line x1="16" y1="0" x2="116" y2="0" stroke="#14130E" stroke-width="1.6"></line>
    <polygon points="116,0 108,-5 108,5" fill="#14130E"></polygon>
    <circle cx="60" cy="14" r="1.5" fill="rgba(20,19,14,0.40)"></circle>
    <circle cx="80" cy="14" r="1.5" fill="rgba(20,19,14,0.40)"></circle>
  </g>

  
  <g transform="translate(976, 290)">
    <rect x="4" y="4" width="240" height="272" rx="4" fill="#6E2207" opacity="0.13"></rect>
    <rect width="240" height="272" rx="4" fill="#FFFFFF"></rect>
    <rect width="240" height="272" rx="4" fill="none" stroke="rgba(20,19,14,0.18)" stroke-width="1"></rect>
    <text x="20" y="32" font-family="ui-monospace, &#39;JetBrains Mono&#39;, &#39;SF Mono&#39;, Menlo, Consolas, monospace" font-size="10.5" font-weight="600" fill="#7E776B" letter-spacing="2">[ § 03 — SKILLS ]</text>
    <g transform="translate(20, 56)" font-family="ui-monospace, &#39;JetBrains Mono&#39;, &#39;SF Mono&#39;, Menlo, Consolas, monospace" font-size="11.5" fill="#14130E">
      <g>
        <rect width="200" height="34" rx="3" fill="#EDEFEF"></rect>
        <rect width="200" height="34" rx="3" fill="none" stroke="rgba(20,19,14,0.08)" stroke-width="1"></rect>
        <rect x="0" y="0" width="3" height="34" fill="#D9461A"></rect>
        <text x="16" y="22">pdf-parse</text>
      </g>
      <g transform="translate(0, 42)">
        <rect width="200" height="34" rx="3" fill="#EDEFEF"></rect>
        <rect width="200" height="34" rx="3" fill="none" stroke="rgba(20,19,14,0.08)" stroke-width="1"></rect>
        <rect x="0" y="0" width="3" height="34" fill="#D9461A"></rect>
        <text x="16" y="22">web-fetch</text>
      </g>
      <g transform="translate(0, 84)">
        <rect width="200" height="34" rx="3" fill="#EDEFEF"></rect>
        <rect width="200" height="34" rx="3" fill="none" stroke="rgba(20,19,14,0.08)" stroke-width="1"></rect>
        <rect x="0" y="0" width="3" height="34" fill="#D9461A"></rect>
        <text x="16" y="22">summarize</text>
      </g>
      <g transform="translate(0, 126)">
        <rect width="200" height="34" rx="3" fill="none" stroke="#D9461A" stroke-dasharray="3 3"></rect>
        <text x="100" y="22" text-anchor="middle" fill="#D9461A">+ forge new</text>
      </g>
    </g>
    <text x="20" y="250" font-family="ui-monospace, &#39;JetBrains Mono&#39;, &#39;SF Mono&#39;, Menlo, Consolas, monospace" font-size="10" fill="#7E776B" letter-spacing="1.4"><tspan fill="#14130E" font-weight="600">SKILL REGISTRY</tspan>  ·  204 LIVE</text>
  </g>

  
  <g transform="translate(64, 580)">
    <rect x="0" y="-2" width="56" height="4" fill="#D9461A"></rect>
    <line x1="56" y1="0" x2="1124" y2="0" stroke="rgba(20,19,14,0.18)" stroke-width="1"></line>
    <rect x="323" y="-1.5" width="3" height="3" fill="rgba(20,19,14,0.40)"></rect>
    <rect x="853" y="-1.5" width="3" height="3" fill="rgba(20,19,14,0.40)"></rect>
    <rect x="1124" y="-2" width="28" height="4" fill="#2B7791"></rect>
  </g>

  
  <g font-family="ui-monospace, &#39;JetBrains Mono&#39;, &#39;SF Mono&#39;, Menlo, Consolas, monospace" font-size="11" fill="#7E776B" letter-spacing="1.4">
    <text x="64" y="610">github.com/ChronoAIProject/Ornn</text>
    <text x="1216" y="610" text-anchor="end"><tspan fill="#14130E" font-weight="600">ornn.chrono-ai.fun</tspan>  ↗</text>
  </g>
</svg>