<svg xmlns="http://www.w3.org/2000/svg" viewBox="0 0 260 64" width="260" height="64" role="img" aria-labelledby="t d">
  <title id="t">ornn</title>
  <desc id="d">ornn wordmark: an eight-tooth gear as the letter o, followed by r, n, n in a bold geometric monoweight style.</desc>
  <path fill="#EA8851" fill-rule="evenodd" d="M63.39,38.24 L59.46,37.46 A28,28 0 0,1 55.28,47.56 L58.61,49.78 A32,32 0 0,1 49.78,58.61 L47.56,55.28 A28,28 0 0,1 37.46,59.46 L38.24,63.39 A32,32 0 0,1 25.76,63.39 L26.54,59.46 A28,28 0 0,1 16.44,55.28 L14.22,58.61 A32,32 0 0,1 5.39,49.78 L8.72,47.56 A28,28 0 0,1 4.54,37.46 L0.61,38.24 A32,32 0 0,1 0.61,25.76 L4.54,26.54 A28,28 0 0,1 8.72,16.44 L5.39,14.22 A32,32 0 0,1 14.22,5.39 L16.44,8.72 A28,28 0 0,1 26.54,4.54 L25.76,0.61 A32,32 0 0,1 38.24,0.61 L37.46,4.54 A28,28 0 0,1 47.56,8.72 L49.78,5.39 A32,32 0 0,1 58.61,14.22 L55.28,16.44 A28,28 0 0,1 59.46,26.54 L63.39,25.76 A32,32 0 0,1 63.39,38.24 Z M46,32 A14,14 0 1,0 18,32 A14,14 0 1,0 46,32 Z"/>
  <g fill="#111111">
    <path d="M78,60 L78,4 L92,4 A28,28 0 0,1 120,32 L106,32 A14,14 0 0,0 92,18 L92,60 Z"/>
    <path d="M134,60 L134,32 A28,28 0 0,1 190,32 L190,60 L176,60 L176,32 A14,14 0 0,0 148,32 L148,60 Z"/>
    <path d="M204,60 L204,32 A28,28 0 0,1 260,32 L260,60 L246,60 L246,32 A14,14 0 0,0 218,32 L218,60 Z"/>
  </g>
</svg>
